<svg width="24" height="24" viewBox="0 0 24 24" fill="none" xmlns="http://www.w3.org/2000/svg">
<path fill-rule="evenodd" clip-rule="evenodd" d="M22.5 12C22.5 17.799 17.799 22.5 12 22.5C6.20101 22.5 1.5 17.799 1.5 12C1.5 6.20101 6.20101 1.5 12 1.5C17.799 1.5 22.5 6.20101 22.5 12ZM13.6565 8.31062C13.1413 8.4241 12.709 8.68673 12.34 9.05864C12.2612 9.13807 12.1771 9.2124 12.0985 9.28189C12.0644 9.31208 12.0313 9.34135 12.0001 9.36973C11.9607 9.33337 11.9198 9.29583 11.8779 9.25741C11.7868 9.17383 11.6912 9.08609 11.5967 8.99719C11.053 8.48574 10.4151 8.21305 9.65842 8.25676C9.13584 8.28693 8.67329 8.47769 8.30354 8.84594C7.58448 9.56204 7.34428 10.4179 7.59802 11.4023C7.72774 11.9053 7.96887 12.3572 8.25925 12.7848C8.71214 13.4514 9.26814 14.0274 9.86235 14.5682C10.5243 15.1704 11.2362 15.7113 11.9617 16.235C11.9968 16.2603 12.0173 16.2502 12.0447 16.2296C12.1801 16.1269 12.3161 16.0249 12.4522 15.923C12.7398 15.7074 13.0273 15.4919 13.3097 15.2697C13.9969 14.7288 14.6388 14.1388 15.2093 13.4754C15.5831 13.0409 15.9142 12.5775 16.1601 12.0583C16.3398 11.679 16.4641 11.2838 16.4936 10.8632C16.5338 10.2885 16.3839 9.76413 16.0653 9.28506C15.5147 8.4572 14.6299 8.09627 13.6565 8.31062Z" fill="url(#paint0_linear)"/>
<defs>
<linearGradient id="paint0_linear" x1="4.46366" y1="7.42731" x2="4.46366" y2="22.5" gradientUnits="userSpaceOnUse">
<stop stop-color="#10A8E5"/>
<stop offset="1" stop-color="#1D7EDD"/>
</linearGradient>
</defs>
</svg>
