<svg width="24" height="24" viewBox="0 0 24 24" fill="none" xmlns="http://www.w3.org/2000/svg">
<path fill-rule="evenodd" clip-rule="evenodd" d="M3.75 2.99999C3.75 2.17157 4.42157 1.49999 5.25 1.49999H18.75C19.5784 1.49999 20.25 2.17157 20.25 2.99999C20.25 3.74324 19.7094 4.36024 19 4.47925V5.19919C20.597 5.72409 21.75 7.22739 21.75 9V18.5C21.75 20.7091 19.9591 22.5 17.75 22.5H6.25C4.04086 22.5 2.25 20.7091 2.25 18.5V9C2.25 7.22739 3.40303 5.72409 5 5.19919V4.47925C4.29057 4.36024 3.75 3.74324 3.75 2.99999ZM6 12C6 10.3431 7.34315 9 9 9H15C16.6569 9 18 10.3431 18 12V15C18 16.6569 16.6569 18 15 18H9C7.34315 18 6 16.6569 6 15V12ZM13.1043 11.2898C12.7609 11.3643 12.4727 11.5366 12.2267 11.7807C12.1741 11.8328 12.1181 11.8816 12.0657 11.9272C12.0429 11.947 12.0209 11.9662 12.0001 11.9848C11.9738 11.9609 11.9465 11.9363 11.9186 11.9111C11.8579 11.8562 11.7941 11.7987 11.7312 11.7403C11.3687 11.4047 10.9434 11.2258 10.4389 11.2544C10.0906 11.2742 9.78219 11.3994 9.53569 11.6411C9.05632 12.111 8.89618 12.6727 9.06534 13.3187C9.15183 13.6488 9.31258 13.9454 9.50617 14.226C9.80809 14.6634 10.1788 15.0414 10.5749 15.3963C11.0162 15.7915 11.4908 16.1464 11.9745 16.4902C11.9979 16.5068 12.0115 16.5002 12.0298 16.4866C12.1201 16.4192 12.2108 16.3523 12.3014 16.2854C12.4932 16.1439 12.6849 16.0025 12.8731 15.8567C13.3312 15.5017 13.7592 15.1145 14.1396 14.6792C14.3887 14.394 14.6095 14.0899 14.7734 13.7492C14.8932 13.5003 14.9761 13.2409 14.9957 12.9649C15.0225 12.5878 14.9226 12.2437 14.7102 11.9293C14.3431 11.386 13.7533 11.1491 13.1043 11.2898Z" fill="url(#paint0_linear)"/>
<defs>
<linearGradient id="paint0_linear" x1="5.00197" y1="7.42731" x2="5.00197" y2="22.5" gradientUnits="userSpaceOnUse">
<stop stop-color="#10A8E5"/>
<stop offset="1" stop-color="#1D7EDD"/>
</linearGradient>
</defs>
</svg>
